<svg xmlns="http://www.w3.org/2000/svg" xmlns:xlink="http://www.w3.org/1999/xlink" width="26" height="26" viewBox="0 0 26 26">
  <defs>
    <clipPath id="clip-path">
      <rect id="Retângulo_34" data-name="Retângulo 34" width="26" height="26" transform="translate(644 6184)" fill="#fff" stroke="#707070" stroke-width="1"/>
    </clipPath>
  </defs>
  <g id="Instagram" transform="translate(-644 -6184)" clip-path="url(#clip-path)">
    <g id="instagram-2" data-name="instagram" transform="translate(641 6181)">
      <path id="Caminho_48" data-name="Caminho 48" d="M16,21.333A5.333,5.333,0,1,0,10.667,16,5.333,5.333,0,0,0,16,21.333Z" fill="none" stroke="#fff" stroke-linecap="round" stroke-linejoin="round" stroke-width="2"/>
      <path id="Caminho_49" data-name="Caminho 49" d="M4,21.333V10.667A6.667,6.667,0,0,1,10.667,4H21.333A6.667,6.667,0,0,1,28,10.667V21.333A6.667,6.667,0,0,1,21.333,28H10.667A6.667,6.667,0,0,1,4,21.333Z" fill="none" stroke="#fff" stroke-linecap="round" stroke-linejoin="round" stroke-width="2"/>
      <path id="Caminho_50" data-name="Caminho 50" d="M23.333,8.681l.013-.015" fill="none" stroke="#fff" stroke-linecap="round" stroke-linejoin="round" stroke-width="2"/>
    </g>
  </g>
</svg>
