<svg xmlns="http://www.w3.org/2000/svg" xmlns:xlink="http://www.w3.org/1999/xlink" width="252.25" height="53.643" viewBox="0 0 252.25 53.643">
  <defs>
    <linearGradient id="linear-gradient" x1="0.509" y1="-3.359" x2="0.495" y2="3.229" gradientUnits="objectBoundingBox">
      <stop offset="0" stop-color="#fff9b7"/>
      <stop offset="0.253" stop-color="#f3c459"/>
      <stop offset="0.511" stop-color="#cc9924"/>
      <stop offset="0.769" stop-color="#b56400"/>
      <stop offset="1" stop-color="#873f00"/>
    </linearGradient>
    <linearGradient id="linear-gradient-2" x1="0.507" y1="-1.095" x2="0.49" y2="2.748" xlink:href="#linear-gradient"/>
    <linearGradient id="linear-gradient-3" x1="0.549" y1="-2.919" x2="0.435" y2="5.908" xlink:href="#linear-gradient"/>
    <linearGradient id="linear-gradient-4" x1="0.622" y1="-12.412" x2="0.297" y2="21.986" xlink:href="#linear-gradient"/>
    <linearGradient id="linear-gradient-5" x1="0.59" y1="-9.142" x2="0.268" y2="25.256" xlink:href="#linear-gradient"/>
    <linearGradient id="linear-gradient-6" x1="0.572" y1="-7.146" x2="0.249" y2="27.252" xlink:href="#linear-gradient"/>
    <linearGradient id="linear-gradient-7" x1="0.549" y1="-2.896" x2="0.434" y2="5.931" xlink:href="#linear-gradient"/>
    <linearGradient id="linear-gradient-8" x1="0.619" y1="-12.205" x2="0.297" y2="22.193" xlink:href="#linear-gradient"/>
    <linearGradient id="linear-gradient-9" x1="0.589" y1="-9.016" x2="0.267" y2="25.382" xlink:href="#linear-gradient"/>
  </defs>
  <g id="Rei_das_Horas_Vetor" transform="translate(-37.85 -26.191)">
    <g id="Grupo_12774" data-name="Grupo 12774">
      <g id="Grupo_12771" data-name="Grupo 12771" transform="translate(37.85 48.537)">
        <path id="Caminho_5028" data-name="Caminho 5028" d="M339.713,291.173l2.076,1.348c-.137.217-.27.43-.437.7-.859-.3-1.458-.923-2.358-1.271-.234.829-.024,1.64-.246,2.421v-2.474c-.914.4-1.549.987-2.384,1.4l-.528-.691,2.025-1.363-8.091-5.067c.2-.261.352-.465.558-.738l7.908,4.935a8.659,8.659,0,0,0,.013,1c.012.1.165.214.285.265a.664.664,0,0,0,.728-.089c.284-.237.264-.551-.107-1.121l12.089-7.869c.152.162.28.285.389.42a2.272,2.272,0,0,1,.179.324C347.808,285.9,343.82,288.5,339.713,291.173Z" transform="translate(-321.421 -275.3)" fill="#2b2b3a"/>
        <path id="Caminho_5029" data-name="Caminho 5029" d="M406.194,233.028V232.4q0-4.491,0-8.982c0-.294.046-.581-.271-.817-.126-.094-.132-.354-.135-.539-.02-1.069-.024-2.138-.033-3.208a1.823,1.823,0,0,1,0-.192c.04-.358.263-.591.552-.547a.492.492,0,0,1,.459.556c-.011,1.2-.015,2.4-.03,3.593,0,.12-.03.3-.118.35-.4.24-.316.59-.316.925q0,4.459,0,8.918v.568Z" transform="translate(-388.853 -218.113)" fill="#2b2b3a"/>
        <path id="Caminho_5030" data-name="Caminho 5030" d="M522.851,355.559c-.6,0-1.19,0-1.787,0a1.138,1.138,0,0,1-.487-.054c-.143-.077-.33-.252-.314-.365a.7.7,0,0,1,.344-.417,1.112,1.112,0,0,1,.489-.034q1.715,0,3.43,0c.072,0,.143,0,.214,0,.421.021.683.188.654.441-.037.32-.312.416-.614.423-.643.014-1.286,0-1.93,0A0,0,0,0,1,522.851,355.559Z" transform="translate(-490.479 -339.312)" fill="#2b2b3a"/>
        <path id="Caminho_5031" data-name="Caminho 5031" d="M258.068,355.566c-.549,0-1.1,0-1.646,0a1.147,1.147,0,0,1-.489-.044c-.161-.089-.362-.262-.362-.4s.2-.3.361-.4a.919.919,0,0,1,.42-.029q1.754,0,3.506,0a.946.946,0,0,1,.421.026.783.783,0,0,1,.374.4c.021.106-.167.3-.311.367a1.377,1.377,0,0,1-.556.072c-.573.008-1.144,0-1.717,0Z" transform="translate(-255.57 -339.317)" fill="#2b2b3a"/>
        <path id="Caminho_5032" data-name="Caminho 5032" d="M407,459.505c0,.556.011,1.112,0,1.666-.01.366-.17.523-.468.521s-.479-.164-.484-.524q-.024-1.666,0-3.333c.006-.359.19-.524.482-.525s.456.161.467.528c.016.555,0,1.111,0,1.666C407,459.505,407,459.505,407,459.505Z" transform="translate(-389.104 -430.396)" fill="#2b2b3a"/>
        <path id="Caminho_5033" data-name="Caminho 5033" d="M332.8,240.532a.307.307,0,0,1-.446.237,1.076,1.076,0,0,1-.324-.325q-.77-1.116-1.522-2.243a.737.737,0,0,1-.152-.349.332.332,0,0,1,.175-.248.4.4,0,0,1,.315.025,1,1,0,0,1,.262.3q.773,1.153,1.535,2.311A3.087,3.087,0,0,1,332.8,240.532Z" transform="translate(-321.944 -235.393)" fill="#2b2b3a"/>
        <path id="Caminho_5034" data-name="Caminho 5034" d="M469.726,240.593c-.332.03-.478-.118-.419-.316a1.214,1.214,0,0,1,.155-.287c.478-.739.954-1.48,1.441-2.213.138-.208.266-.53.633-.336.394.207.086.439-.049.644-.473.717-.949,1.433-1.433,2.143A3.027,3.027,0,0,1,469.726,240.593Z" transform="translate(-445.247 -235.212)" fill="#2b2b3a"/>
        <path id="Caminho_5035" data-name="Caminho 5035" d="M469.558,447.98c.159.1.286.137.34.216.593.873,1.179,1.751,1.75,2.635.051.079.009.3-.053.324a.813.813,0,0,1-.443-.006c-.072-.017-.123-.124-.171-.2q-.78-1.183-1.553-2.37c-.047-.072-.124-.167-.1-.23A1.848,1.848,0,0,1,469.558,447.98Z" transform="translate(-445.27 -422.116)" fill="#2b2b3a"/>
        <path id="Caminho_5036" data-name="Caminho 5036" d="M333.381,448.878a2.481,2.481,0,0,1-.125.236q-.753,1.156-1.511,2.309a.808.808,0,0,1-.261.294.486.486,0,0,1-.386.01c-.079-.047-.092-.213-.09-.325,0-.075.081-.15.129-.223.484-.73.965-1.463,1.455-2.19a1.331,1.331,0,0,1,.306-.344A.3.3,0,0,1,333.381,448.878Z" transform="translate(-322.52 -422.654)" fill="#2b2b3a"/>
        <path id="Caminho_5037" data-name="Caminho 5037" d="M277.121,412.649c-.094-.06-.224-.1-.268-.178a.3.3,0,0,1,.01-.288.989.989,0,0,1,.329-.235q1.133-.6,2.272-1.2a.781.781,0,0,1,.317-.129c.122,0,.3.044.349.12a.44.44,0,0,1-.045.35c-.03.065-.147.1-.228.145q-1.195.635-2.391,1.267C277.364,412.554,277.253,412.592,277.121,412.649Z" transform="translate(-274.43 -388.96)" fill="#2b2b3a"/>
        <path id="Caminho_5038" data-name="Caminho 5038" d="M517.988,287.494a1.16,1.16,0,0,1-.246.235c-.872.479-1.751.947-2.626,1.42-.19.1-.391.117-.477-.082a.379.379,0,0,1,.1-.379c.9-.513,1.816-1.013,2.743-1.491A.33.33,0,0,1,517.988,287.494Z" transform="translate(-485.474 -279.382)" fill="#2b2b3a"/>
        <path id="Caminho_5039" data-name="Caminho 5039" d="M275.89,287.535a.377.377,0,0,1,.6-.243c.883.465,1.763.935,2.627,1.428a.44.44,0,0,1,.172.415c-.1.244-.334.177-.533.068q-1.343-.733-2.681-1.472C276,287.69,275.953,287.6,275.89,287.535Z" transform="translate(-273.604 -279.445)" fill="#2b2b3a"/>
        <path id="Caminho_5040" data-name="Caminho 5040" d="M514.288,410.44a1.845,1.845,0,0,1,.273.1c.846.438,1.69.88,2.535,1.319.2.106.375.236.211.456-.15.2-.37.151-.572.051-.145-.072-.282-.159-.426-.234-.638-.334-1.278-.665-1.914-1a1.452,1.452,0,0,1-.4-.263C513.85,410.7,513.989,410.461,514.288,410.44Z" transform="translate(-484.868 -388.8)" fill="#2b2b3a"/>
      </g>
      <g id="Grupo_12772" data-name="Grupo 12772" transform="translate(38.126 26.191)">
        <path id="Caminho_5041" data-name="Caminho 5041" d="M258.02,168.631a26.517,26.517,0,0,1,35.273,0,23.478,23.478,0,0,0-35.273,0Z" transform="translate(-258.02 -144.769)" fill-rule="evenodd" fill="url(#linear-gradient)"/>
        <path id="Caminho_5042" data-name="Caminho 5042" d="M295.785,55.53c-.376,7.274-9.83,12.128-15.085,7.228,0,0,1.446,2.224,3.833,6.452a24.455,24.455,0,0,1,22.516,0c2.375-4.228,3.834-6.452,3.834-6.452-5.257,4.9-14.709.046-15.1-7.228Z" transform="translate(-278.148 -51.477)" fill-rule="evenodd" fill="url(#linear-gradient-2)"/>
        <path id="Caminho_5043" data-name="Caminho 5043" d="M329.71,82.274a9.242,9.242,0,0,0,4.374-1.448,9.215,9.215,0,0,1-3.95-4.506,9.041,9.041,0,0,1-.423,5.954Z" transform="translate(-321.644 -69.928)" fill-rule="evenodd" fill="url(#linear-gradient-3)"/>
        <path id="Caminho_5044" data-name="Caminho 5044" d="M259.1,91.148a.764.764,0,1,0-.764-.764.77.77,0,0,0,.764.764Z" transform="translate(-258.304 -81.731)" fill-rule="evenodd" fill="url(#linear-gradient-4)"/>
        <path id="Caminho_5045" data-name="Caminho 5045" d="M317.526,47.288a.764.764,0,1,0,0-1.528.764.764,0,1,0,0,1.528Z" transform="translate(-310.142 -42.806)" fill-rule="evenodd" fill="url(#linear-gradient-5)"/>
        <path id="Caminho_5046" data-name="Caminho 5046" d="M408.646,21.038a.764.764,0,1,0,0-1.528.764.764,0,1,0,0,1.528Z" transform="translate(-391.009 -19.51)" fill-rule="evenodd" fill="url(#linear-gradient-6)"/>
        <path id="Caminho_5047" data-name="Caminho 5047" d="M465.444,82.274a9.2,9.2,0,0,1-4.374-1.448,9.215,9.215,0,0,0,3.95-4.506,9.035,9.035,0,0,0,.423,5.954Z" transform="translate(-438.223 -69.928)" fill-rule="evenodd" fill="url(#linear-gradient-7)"/>
        <path id="Caminho_5048" data-name="Caminho 5048" d="M558.286,91.148a.764.764,0,1,0,0-1.528.764.764,0,1,0,0,1.528Z" transform="translate(-523.812 -81.731)" fill-rule="evenodd" fill="url(#linear-gradient-8)"/>
        <path id="Caminho_5049" data-name="Caminho 5049" d="M499.876,47.288a.764.764,0,1,0-.776-.764.778.778,0,0,0,.776.764Z" transform="translate(-471.974 -42.806)" fill-rule="evenodd" fill="url(#linear-gradient-9)"/>
      </g>
    </g>
    <g id="Grupo_12773" data-name="Grupo 12773" transform="translate(80.671 44.191)">
      <path id="Caminho_5050" data-name="Caminho 5050" d="M51.708,586.748a.922.922,0,0,1,.221.026l1.8.7a.3.3,0,0,1,.221.312q0,.234-.249.234H51.209l-.275.026c-.055,0-.262-.19-.621-.572s-.79-.86-1.3-1.439-1.052-1.211-1.642-1.894-1.135-1.328-1.642-1.933-.938-1.122-1.3-1.556-.566-.673-.621-.725a.28.28,0,0,0-.359-.117,1.119,1.119,0,0,1-.468.091h-.275a1.094,1.094,0,0,0-.785.3.968.968,0,0,0-.317.738v4.643a1.478,1.478,0,0,0,.3.829,1.861,1.861,0,0,0,.662.624l.857.389a.352.352,0,0,1,.249.338c0,.174-.083.26-.249.26h-5.31c-.184,0-.275-.086-.275-.26a.352.352,0,0,1,.249-.338l.969-.415a1.834,1.834,0,0,0,1-1.452V573.366a1.536,1.536,0,0,0-.3-.842,1.566,1.566,0,0,0-.691-.611L38.1,571.5a.368.368,0,0,1-.249-.364c0-.156.091-.234.275-.234h6.653a9.289,9.289,0,0,1,2.5.312,5.8,5.8,0,0,1,1.9.894,4.228,4.228,0,0,1,1.226,1.4,3.794,3.794,0,0,1,.442,1.829,2.971,2.971,0,0,1-.359,1.439,4.536,4.536,0,0,1-.94,1.193,6.517,6.517,0,0,1-1.356.946,8.133,8.133,0,0,1-1.577.649A.584.584,0,0,0,46.2,580a.639.639,0,0,0,.138.6c.351.431.746.907,1.19,1.426s.894,1.049,1.356,1.6.912,1.076,1.356,1.6.847.977,1.216,1.374a1.108,1.108,0,0,0,.125.091A.324.324,0,0,0,51.708,586.748Zm-10.1-8.773a1.011,1.011,0,0,0,.333.759,1.12,1.12,0,0,0,.8.314h1.107a6.62,6.62,0,0,0,1.769-.26,6.992,6.992,0,0,0,1.728-.733,4.915,4.915,0,0,0,1.315-1.122,2.267,2.267,0,0,0,.525-1.463,3.216,3.216,0,0,0-1.3-2.676,5.5,5.5,0,0,0-3.458-1.005c-.3-.018-.553-.026-.774-.026H42.111a.5.5,0,0,0-.346.143.468.468,0,0,0-.153.353Z" transform="translate(-37.85 -570.669)"/>
      <path id="Caminho_5051" data-name="Caminho 5051" d="M122.344,584c.148,0,.221.07.221.208v2.333a1.476,1.476,0,0,1-.5,1.115,1.678,1.678,0,0,1-1.19.468H108.6c-.184,0-.275-.086-.275-.26a.352.352,0,0,1,.249-.338l.969-.416a1.833,1.833,0,0,0,1-1.452V573.465a1.533,1.533,0,0,0-.3-.841,1.565,1.565,0,0,0-.691-.611l-.969-.416a.368.368,0,0,1-.249-.364c0-.156.091-.234.275-.234h11.592a1.681,1.681,0,0,1,1.19.468,1.476,1.476,0,0,1,.5,1.115v2.047c0,.156-.073.234-.221.234a.375.375,0,0,1-.358-.208l-1.024-1.894a1.536,1.536,0,0,0-.649-.61,1.812,1.812,0,0,0-.87-.273h-4.983a1.68,1.68,0,0,0-1.19.468,1.476,1.476,0,0,0-.5,1.114v3.811a1.477,1.477,0,0,0,.5,1.115,1.677,1.677,0,0,0,1.19.467H116.7a1.746,1.746,0,0,0,.857-.273A1.6,1.6,0,0,0,118.2,578l.553-.959a.461.461,0,0,1,.195-.182.554.554,0,0,1,.275-.078c.2,0,.3.1.3.286V581.5a.272.272,0,0,1-.3.312.547.547,0,0,1-.275-.078.473.473,0,0,1-.195-.182l-.553-.959a1.6,1.6,0,0,0-.636-.585,1.744,1.744,0,0,0-.857-.273h-2.933a1.681,1.681,0,0,0-1.19.468,1.476,1.476,0,0,0-.5,1.115v4.331a1.477,1.477,0,0,0,.5,1.115,1.678,1.678,0,0,0,1.19.468h5.643a1.713,1.713,0,0,0,.886-.286,1.738,1.738,0,0,0,.665-.65l1.024-2.1A.376.376,0,0,1,122.344,584Z" transform="translate(-90.012 -570.743)"/>
      <path id="Caminho_5052" data-name="Caminho 5052" d="M184.043,587.858c0,.174-.083.26-.249.26h-5.448c-.184,0-.275-.085-.275-.26a.352.352,0,0,1,.249-.338l.969-.416a1.833,1.833,0,0,0,.995-1.452V573.466a1.534,1.534,0,0,0-.3-.842,1.569,1.569,0,0,0-.691-.611l-.969-.415a.368.368,0,0,1-.249-.364c0-.156.091-.234.275-.234h5.448q.249,0,.249.234a.368.368,0,0,1-.249.364l-.969.415a1.835,1.835,0,0,0-1,1.453v12.187a1.536,1.536,0,0,0,.3.842,1.552,1.552,0,0,0,.691.61l.969.416A.352.352,0,0,1,184.043,587.858Z" transform="translate(-141.641 -570.743)"/>
      <path id="Caminho_5053" data-name="Caminho 5053" d="M249.288,588.118h-7.173c-.184,0-.275-.085-.275-.26a.352.352,0,0,1,.249-.338l.969-.416a1.833,1.833,0,0,0,.995-1.452V573.466a1.533,1.533,0,0,0-.3-.842,1.569,1.569,0,0,0-.691-.611l-.969-.415a.368.368,0,0,1-.249-.364c0-.156.091-.234.275-.234h6.952a16.581,16.581,0,0,1,4.211.494,9.458,9.458,0,0,1,3.242,1.491,6.782,6.782,0,0,1,2.091,2.476,7.618,7.618,0,0,1,.735,3.424,9.809,9.809,0,0,1-.72,3.889,7.888,7.888,0,0,1-2.037,2.853,9.093,9.093,0,0,1-3.172,1.79A14.532,14.532,0,0,1,249.288,588.118Zm-3.689-2.463a1.477,1.477,0,0,0,.5,1.115,1.677,1.677,0,0,0,1.19.468h1.935a11.652,11.652,0,0,0,3.471-.585,7.652,7.652,0,0,0,2.668-1.517,6.694,6.694,0,0,0,1.715-2.411,8.333,8.333,0,0,0,.608-3.294,7.817,7.817,0,0,0-.65-3.281,6.373,6.373,0,0,0-1.839-2.359,8.136,8.136,0,0,0-2.863-1.427,13.505,13.505,0,0,0-3.72-.481h-1.494a1.511,1.511,0,0,0-1.078.416,1.3,1.3,0,0,0-.442.985Z" transform="translate(-188.844 -570.743)"/>
      <path id="Caminho_5054" data-name="Caminho 5054" d="M323.69,587.243a.352.352,0,0,1,.249.338c0,.174-.083.26-.249.26h-5.061q-.249,0-.249-.234a.3.3,0,0,1,.221-.312l1.3-.493a1.959,1.959,0,0,0,.525-.39,1.919,1.919,0,0,0,.416-.494q.885-2,2.585-5.8t4-8.961a1.357,1.357,0,0,1,.275-.351.618.618,0,0,1,.359-.22h.166a.3.3,0,0,1,.3.182l.083.182q1.356,3.086,2.627,5.913.748,1.688,1.244,2.814c.333.751.668,1.509,1.011,2.268s.673,1.5,1,2.2.6,1.341.844,1.894a1.637,1.637,0,0,0,.387.481,2.223,2.223,0,0,0,.5.4l.969.416a.286.286,0,0,1,.195.286c0,.138-.073.208-.221.208h-5.393q-.249,0-.249-.234a.3.3,0,0,1,.221-.312l.995-.338,1.19-.416q-.386-.885-.746-1.72-.331-.756-.678-1.522t-.595-1.341a.955.955,0,0,0-.387-.4,1.023,1.023,0,0,0-.525-.169h-6.222a1.273,1.273,0,0,0-.678.247,1.189,1.189,0,0,0-.483.533c-.184.415-.382.868-.595,1.354s-.411.946-.595,1.38-.34.8-.47,1.107-.2.473-.221.506c-.055.138-.06.232-.013.273a.366.366,0,0,0,.249.065h.416a1.369,1.369,0,0,1,.457.078Zm5.835-6.664a1.1,1.1,0,0,0,1.011-.52,1.167,1.167,0,0,0,.07-1.114q-.69-1.555-1.327-2.982t-1.107-2.489a.354.354,0,0,0-.387-.234.444.444,0,0,0-.387.26q-.748,1.688-1.411,3.19t-1.244,2.853a.632.632,0,0,0,.083.74,1,1,0,0,0,.774.3h3.926Z" transform="translate(-245.499 -570.439)"/>
      <path id="Caminho_5055" data-name="Caminho 5055" d="M409.806,571.382a9.809,9.809,0,0,0-1.245-.413,4.4,4.4,0,0,0-1.078-.153,3.347,3.347,0,0,0-2.447.907,3.181,3.181,0,0,0-.927,2.382,2.883,2.883,0,0,0,1,2.24,8.637,8.637,0,0,0,2.988,1.566,9.248,9.248,0,0,1,3.525,1.9,3.82,3.82,0,0,1,1.174,2.886,5.326,5.326,0,0,1-.374,2.032,4.378,4.378,0,0,1-1.065,1.567,4.746,4.746,0,0,1-1.673,1,6.493,6.493,0,0,1-2.172.348,12.025,12.025,0,0,1-2.323-.247,12.59,12.59,0,0,1-2.323-.686,1.115,1.115,0,0,1-.54-.455,1.44,1.44,0,0,1-.234-.663l-.138-2.671c0-.086.055-.13.166-.13h.221l.055-.026c.091,0,.148.026.166.078l.553,1.323q.3.725.553,1.348a.391.391,0,0,0,.083.13c.054.07.091.1.112.1,0,.018.031.047.1.091a1.108,1.108,0,0,1,.125.091,18.7,18.7,0,0,0,1.993.7,5.61,5.61,0,0,0,1.465.26,3.7,3.7,0,0,0,2.751-1.049,3.793,3.793,0,0,0,1.037-2.788,3,3,0,0,0-1.107-2.359,9.771,9.771,0,0,0-3.292-1.686,8.726,8.726,0,0,1-3.25-1.764,3.488,3.488,0,0,1-1.091-2.645,4.77,4.77,0,0,1,.358-1.881,4.169,4.169,0,0,1,1.024-1.452,4.508,4.508,0,0,1,1.6-.933,6.33,6.33,0,0,1,2.073-.325,8.229,8.229,0,0,1,1.936.234,7.541,7.541,0,0,1,1.715.624,1.041,1.041,0,0,1,.374.389.987.987,0,0,1,.153.494l.166,2.437c0,.086-.047.13-.138.13h-.3c-.093.018-.148.008-.166-.026-.166-.377-.346-.785-.54-1.224s-.374-.837-.54-1.2a1.039,1.039,0,0,0-.5-.462v-.026Z" transform="translate(-307.357 -570.01)"/>
      <path id="Caminho_5056" data-name="Caminho 5056" d="M501.549,587.858c0,.174-.083.26-.249.26h-5.448c-.185,0-.278-.085-.278-.26a.352.352,0,0,1,.25-.338l.969-.416a1.832,1.832,0,0,0,.995-1.452v-4.331a1.477,1.477,0,0,0-.5-1.115,1.677,1.677,0,0,0-1.19-.468h-7.69a1.678,1.678,0,0,0-1.19.468,1.477,1.477,0,0,0-.5,1.115v4.331a1.534,1.534,0,0,0,.3.842,1.55,1.55,0,0,0,.691.61l.969.416a.352.352,0,0,1,.249.338c0,.174-.083.26-.249.26h-5.448c-.184,0-.275-.085-.275-.26a.352.352,0,0,1,.25-.338l.969-.416a1.831,1.831,0,0,0,.995-1.452V573.466a1.533,1.533,0,0,0-.3-.842,1.57,1.57,0,0,0-.691-.611l-.969-.415a.368.368,0,0,1-.25-.364c0-.156.091-.234.275-.234h5.448q.249,0,.249.234a.368.368,0,0,1-.249.364l-.969.415a1.836,1.836,0,0,0-.995,1.453v3.811a1.477,1.477,0,0,0,.5,1.115,1.678,1.678,0,0,0,1.19.468h7.69a1.681,1.681,0,0,0,1.19-.468,1.477,1.477,0,0,0,.5-1.115v-3.811a1.534,1.534,0,0,0-.3-.842,1.57,1.57,0,0,0-.691-.611l-.969-.415a.368.368,0,0,1-.25-.364c0-.156.091-.234.278-.234H501.3q.249,0,.249.234a.368.368,0,0,1-.249.364l-.969.415a1.835,1.835,0,0,0-.995,1.453v12.187a1.535,1.535,0,0,0,.3.842,1.553,1.553,0,0,0,.691.61l.969.416A.352.352,0,0,1,501.549,587.858Z" transform="translate(-367.321 -570.743)"/>
      <path id="Caminho_5057" data-name="Caminho 5057" d="M568.88,578.775a9.548,9.548,0,0,1,.65-3.59,7.735,7.735,0,0,1,1.852-2.762,8.528,8.528,0,0,1,2.876-1.777,11.193,11.193,0,0,1,7.441,0,8.306,8.306,0,0,1,2.876,1.8,7.923,7.923,0,0,1,1.852,2.8,9.72,9.72,0,0,1,.65,3.629,9.534,9.534,0,0,1-.65,3.591,7.73,7.73,0,0,1-1.852,2.762,8.53,8.53,0,0,1-2.876,1.777,11.2,11.2,0,0,1-7.441,0,8.291,8.291,0,0,1-2.876-1.8,7.891,7.891,0,0,1-1.852-2.8A9.772,9.772,0,0,1,568.88,578.775Zm1.66-.546a10.432,10.432,0,0,0,.566,3.528,7.977,7.977,0,0,0,1.59,2.71,7.057,7.057,0,0,0,2.463,1.751,7.907,7.907,0,0,0,3.18.624,7.584,7.584,0,0,0,2.9-.533,6.325,6.325,0,0,0,2.226-1.5,6.8,6.8,0,0,0,1.439-2.346,8.66,8.66,0,0,0,.512-3.035,10.622,10.622,0,0,0-.553-3.525,7.786,7.786,0,0,0-1.577-2.71,7.147,7.147,0,0,0-2.447-1.751,7.814,7.814,0,0,0-3.167-.624,7.687,7.687,0,0,0-2.918.532,6.473,6.473,0,0,0-2.255,1.5,6.719,6.719,0,0,0-1.452,2.333A8.617,8.617,0,0,0,570.54,578.23Z" transform="translate(-430.919 -570.01)"/>
      <path id="Caminho_5058" data-name="Caminho 5058" d="M667.168,586.748a.923.923,0,0,1,.221.026l1.8.7a.3.3,0,0,1,.221.312q0,.234-.249.234h-2.489l-.278.026c-.055,0-.262-.19-.621-.572s-.79-.86-1.3-1.439-1.052-1.211-1.642-1.894-1.135-1.328-1.642-1.933-.938-1.122-1.3-1.556-.567-.673-.621-.725a.28.28,0,0,0-.358-.117,1.12,1.12,0,0,1-.468.091h-.276a1.094,1.094,0,0,0-.785.3.977.977,0,0,0-.317.738v4.643a1.478,1.478,0,0,0,.3.829,1.845,1.845,0,0,0,.665.624l.857.389a.352.352,0,0,1,.25.338c0,.174-.083.26-.25.26h-5.31c-.185,0-.275-.086-.275-.26a.353.353,0,0,1,.249-.338l.969-.415a1.834,1.834,0,0,0,1-1.452V573.366a1.536,1.536,0,0,0-.3-.842,1.568,1.568,0,0,0-.691-.611l-.969-.416a.368.368,0,0,1-.249-.364c0-.156.091-.234.275-.234h6.653a9.289,9.289,0,0,1,2.5.312,5.8,5.8,0,0,1,1.9.894,4.224,4.224,0,0,1,1.226,1.4,3.8,3.8,0,0,1,.442,1.829,2.969,2.969,0,0,1-.359,1.439,4.531,4.531,0,0,1-.94,1.193,6.519,6.519,0,0,1-1.356.946,8.127,8.127,0,0,1-1.577.649.584.584,0,0,0-.416.442.638.638,0,0,0,.138.6c.351.431.746.907,1.19,1.426s.893,1.049,1.356,1.6.912,1.076,1.356,1.6.847.977,1.216,1.374a1.135,1.135,0,0,0,.125.091A.341.341,0,0,0,667.168,586.748Zm-10.1-8.773a1.01,1.01,0,0,0,.333.759,1.12,1.12,0,0,0,.8.314h1.107a6.618,6.618,0,0,0,1.769-.26,7,7,0,0,0,1.728-.733,4.917,4.917,0,0,0,1.315-1.122,2.268,2.268,0,0,0,.525-1.463,3.216,3.216,0,0,0-1.3-2.676,5.5,5.5,0,0,0-3.458-1.005c-.3-.018-.554-.026-.774-.026h-1.549a.5.5,0,0,0-.346.143.469.469,0,0,0-.153.353Z" transform="translate(-493.414 -570.669)"/>
      <path id="Caminho_5059" data-name="Caminho 5059" d="M723.991,587.243a.352.352,0,0,1,.249.338c0,.174-.083.26-.249.26h-5.061q-.249,0-.249-.234a.3.3,0,0,1,.221-.312l1.3-.493a1.958,1.958,0,0,0,.525-.39,1.92,1.92,0,0,0,.416-.494q.885-2,2.585-5.8t4-8.961a1.33,1.33,0,0,1,.278-.351.619.619,0,0,1,.359-.22h.166a.3.3,0,0,1,.3.182l.083.182q1.356,3.086,2.626,5.913.748,1.688,1.245,2.814c.333.751.668,1.509,1.011,2.268s.673,1.5,1,2.2.6,1.341.844,1.894a1.646,1.646,0,0,0,.387.481,2.231,2.231,0,0,0,.5.4l.969.416a.286.286,0,0,1,.195.286c0,.138-.073.208-.221.208h-5.4q-.25,0-.25-.234a.3.3,0,0,1,.221-.312l1-.338,1.19-.416q-.385-.885-.746-1.72-.331-.756-.678-1.522t-.595-1.341a.955.955,0,0,0-.387-.4,1.021,1.021,0,0,0-.525-.169h-6.222a1.273,1.273,0,0,0-.678.247,1.189,1.189,0,0,0-.483.533c-.185.415-.382.868-.595,1.354s-.41.946-.595,1.38-.341.8-.47,1.107-.2.473-.221.506c-.055.138-.06.232-.013.273a.365.365,0,0,0,.249.065h.416a1.366,1.366,0,0,1,.457.078Zm5.835-6.664a1.1,1.1,0,0,0,1.011-.52,1.159,1.159,0,0,0,.07-1.114q-.693-1.555-1.328-2.982t-1.107-2.489a.354.354,0,0,0-.387-.234.444.444,0,0,0-.387.26q-.748,1.688-1.411,3.19t-1.244,2.853a.632.632,0,0,0,.083.74,1,1,0,0,0,.774.3h3.926Z" transform="translate(-541.801 -570.439)"/>
      <path id="Caminho_5060" data-name="Caminho 5060" d="M810.1,571.382a9.791,9.791,0,0,0-1.244-.413,4.4,4.4,0,0,0-1.078-.153,3.346,3.346,0,0,0-2.447.907,3.181,3.181,0,0,0-.927,2.382,2.883,2.883,0,0,0,1,2.24,8.657,8.657,0,0,0,2.988,1.566,9.247,9.247,0,0,1,3.525,1.9,3.82,3.82,0,0,1,1.174,2.886,5.328,5.328,0,0,1-.374,2.032,4.377,4.377,0,0,1-1.065,1.567,4.745,4.745,0,0,1-1.673,1,6.493,6.493,0,0,1-2.172.348,12.032,12.032,0,0,1-2.323-.247,12.6,12.6,0,0,1-2.323-.686,1.113,1.113,0,0,1-.54-.455,1.408,1.408,0,0,1-.234-.663l-.138-2.671c0-.086.055-.13.166-.13h.221l.055-.026c.091,0,.148.026.166.078l.553,1.323q.3.725.553,1.348a.389.389,0,0,0,.083.13c.055.07.091.1.112.1,0,.018.031.047.1.091a1.141,1.141,0,0,1,.125.091,18.647,18.647,0,0,0,1.993.7,5.608,5.608,0,0,0,1.465.26,3.7,3.7,0,0,0,2.752-1.049,3.794,3.794,0,0,0,1.036-2.788,3,3,0,0,0-1.107-2.359,9.771,9.771,0,0,0-3.292-1.686,8.723,8.723,0,0,1-3.25-1.764,3.489,3.489,0,0,1-1.094-2.645,4.766,4.766,0,0,1,.359-1.881,4.169,4.169,0,0,1,1.023-1.452,4.511,4.511,0,0,1,1.6-.933,6.329,6.329,0,0,1,2.073-.325,8.23,8.23,0,0,1,1.936.234,7.54,7.54,0,0,1,1.714.624,1.041,1.041,0,0,1,.374.389.988.988,0,0,1,.153.494l.166,2.437c0,.086-.047.13-.137.13h-.3c-.093.018-.148.008-.166-.026q-.249-.565-.541-1.224c-.192-.437-.374-.837-.54-1.2a1.05,1.05,0,0,0-.5-.462v-.026Z" transform="translate(-603.652 -570.01)"/>
    </g>
  </g>
</svg>
