<svg xmlns="http://www.w3.org/2000/svg" xmlns:xlink="http://www.w3.org/1999/xlink" width="26" height="26" viewBox="0 0 26 26">
  <defs>
    <clipPath id="clip-path">
      <rect id="Retângulo_36" data-name="Retângulo 36" width="26" height="26" transform="translate(725 6184)" fill="#fff" stroke="#707070" stroke-width="1"/>
    </clipPath>
  </defs>
  <g id="Youtube" transform="translate(-725 -6184)" clip-path="url(#clip-path)">
    <g id="youtube-2" data-name="youtube" transform="translate(723.488 6182.49)">
      <path id="Caminho_51" data-name="Caminho 51" d="M16.93,14.512,12.7,16.93V12.093Z" fill="#fff" stroke="#fff" stroke-linecap="round" stroke-linejoin="round" stroke-width="1.814"/>
      <path id="Caminho_52" data-name="Caminho 52" d="M2.419,15.365V13.654c0-3.5,0-5.252,1.094-6.379S6.333,6.1,9.781,6c1.633-.046,3.3-.08,4.731-.08s3.1.034,4.731.08c3.448.1,5.172.146,6.267,1.272s1.1,2.878,1.1,6.379v1.711c0,3.5,0,5.252-1.094,6.378s-2.819,1.175-6.268,1.273c-1.633.046-3.3.08-4.731.08s-3.1-.034-4.731-.08c-3.448-.1-5.172-.146-6.268-1.273S2.419,18.866,2.419,15.365Z" fill="none" stroke="#fff" stroke-linecap="round" stroke-linejoin="round" stroke-width="1.814"/>
    </g>
  </g>
</svg>
