<svg xmlns="http://www.w3.org/2000/svg" xmlns:xlink="http://www.w3.org/1999/xlink" width="14" height="14" viewBox="0 0 14 14">
  <defs>
    <clipPath id="clip-path">
      <rect id="Retângulo_" data-name="Retângulo " width="14" height="14" transform="translate(311 2991)" fill="#0b47ac" stroke="#707070" stroke-width="1"/>
    </clipPath>
  </defs>
  <g id="Ícone_Email" data-name="Ícone Email" transform="translate(-311 -2991)" clip-path="url(#clip-path)">
    <path id="envelope-solid" d="M12.687,64a1.312,1.312,0,0,1,.787,2.362l-5.95,4.463a.878.878,0,0,1-1.05,0L.525,66.362A1.312,1.312,0,0,1,1.312,64ZM5.95,71.525a1.747,1.747,0,0,0,2.1,0L14,67.062V72.75a1.752,1.752,0,0,1-1.75,1.75H1.75A1.751,1.751,0,0,1,0,72.75V67.062Z" transform="translate(311 2928.556)" fill="#d5a330"/>
  </g>
</svg>
