<svg xmlns="http://www.w3.org/2000/svg" xmlns:xlink="http://www.w3.org/1999/xlink" width="14" height="14" viewBox="0 0 14 14">
  <defs>
    <clipPath id="clip-path">
      <rect id="Retângulo_" data-name="Retângulo " width="14" height="14" transform="translate(311 3062)" fill="#d5a330" stroke="#707070" stroke-width="1"/>
    </clipPath>
  </defs>
  <g id="Ícone_Whatsapp" data-name="Ícone Whatsapp" transform="translate(-311 -3062)" clip-path="url(#clip-path)">
    <path id="whatsapp-brands" d="M11.9,34.034A6.94,6.94,0,0,0,.984,42.406L0,46l3.678-.966a6.916,6.916,0,0,0,3.316.844H7A6.893,6.893,0,0,0,11.9,34.034ZM7,44.709a5.756,5.756,0,0,1-2.937-.8l-.209-.125-2.181.572.581-2.128-.138-.219a5.777,5.777,0,1,1,10.716-3.066A5.831,5.831,0,0,1,7,44.709Zm3.162-4.319c-.172-.088-1.025-.506-1.184-.563s-.275-.087-.391.088-.447.562-.55.681-.2.131-.375.044A4.719,4.719,0,0,1,5.3,38.578c-.178-.306.178-.284.509-.947a.321.321,0,0,0-.016-.3c-.044-.087-.391-.941-.534-1.287s-.284-.291-.391-.3-.216-.006-.331-.006a.642.642,0,0,0-.463.216A1.948,1.948,0,0,0,3.469,37.4a3.4,3.4,0,0,0,.706,1.794,7.746,7.746,0,0,0,2.962,2.619,3.392,3.392,0,0,0,2.081.434,1.775,1.775,0,0,0,1.169-.825,1.45,1.45,0,0,0,.1-.825C10.447,40.519,10.331,40.475,10.159,40.391Z" transform="translate(311 3030)" fill="#d5a330"/>
  </g>
</svg>
